# xmcd
#
# Track frame offsets:
#	150
#	13382
#	24702
#	37107
#	45377
#	57680
#	69070
#	80660
#	94012
#	108320
#	119502
#	131020
#	150267
#	163875
#	175630
#	188792
#
# Disc length: 2653
#
# Revision: 1
# Processed by: cddbd v1.5.1PL0 Copyright (c) Steve Scherf et al.
# Submitted via: ExactAudioCopy v0.95a3
# Normalized: r0:TDELIM( - )
#
DISCID=d40a5b10
DTITLE=Various Artist - West's Best No1's Vol. 2
DYEAR=1900
DGENRE=Country
TTITLE0=Tom T Hall - Ravishing Ruby
TTITLE1=Roger Miller - Chug-a-Lug
TTITLE2=Freddie Fender - Before the Next Teardrop Falls
TTITLE3=Jim Reeves - He'll Have to Go
TTITLE4=Ferlin Husky - On the Wings of a Dove
TTITLE5=Sandy Posey - Single Girl
TTITLE6=Claude King - Wolverton Mountain
TTITLE7=BJ Thomas - Hooked on a Feeling
TTITLE8=Kenny Rogers - Ruby Don't Take Your Love to Town
TTITLE9=Jimmy Dean - Cajun Queen
TTITLE10=Leroy Van Dyke - Walk on By
TTITLE11=The Judds - Maybe Your Baby's Got the Blues
TTITLE12=Patsy Cline - She's Got You
TTITLE13=Guy Mitchell - Heartaches by the Number
TTITLE14=Tammy Wynette - I Don't Wanna Play House
TTITLE15=Marty Robbins - A White Sports Coat
EXTD=
EXTT0=
EXTT1=
EXTT2=
EXTT3=
EXTT4=
EXTT5=
EXTT6=
EXTT7=
EXTT8=
EXTT9=
EXTT10=
EXTT11=
EXTT12=
EXTT13=
EXTT14=
EXTT15=
PLAYORDER=
